<?xml version="1.0" standalone="no"?>
<!DOCTYPE svg PUBLIC "-//W3C//DTD SVG 20010904//EN"
 "http://www.w3.org/TR/2001/REC-SVG-20010904/DTD/svg10.dtd">
<svg version="1.0" xmlns="http://www.w3.org/2000/svg"
 width="1024.000000pt" height="1024.000000pt" viewBox="0 0 1024.000000 1024.000000"
 preserveAspectRatio="xMidYMid meet">

<g transform="translate(0.000000,1024.000000) scale(0.100000,-0.100000)"
fill="#000000" stroke="none">
<path d="M4940 9153 c-395 -23 -802 -130 -1155 -303 -594 -291 -1067 -758
-1350 -1334 -104 -212 -166 -376 -215 -571 -86 -341 -116 -665 -90 -991 33
-406 130 -763 305 -1119 261 -530 707 -1003 1229 -1301 132 -75 328 -166 348
-161 7 2 9 2 4 -1 -20 -10 193 -81 394 -132 246 -61 573 -97 805 -87 170 8
356 28 349 38 -3 5 2 6 10 3 19 -7 163 19 306 57 751 198 1412 702 1821 1388
231 386 355 766 404 1233 65 625 -85 1301 -409 1842 -142 237 -275 404 -474
597 -514 500 -1171 790 -1897 838 -151 10 -259 11 -385 4z m500 -128 c579 -71
1066 -271 1490 -610 339 -272 592 -585 781 -970 306 -625 379 -1317 209 -1989
-98 -387 -291 -770 -558 -1105 -128 -161 -381 -409 -533 -523 -241 -181 -511
-324 -794 -422 -52 -18 -92 -36 -88 -41 5 -4 2 -5 -5 -1 -6 4 -56 -4 -110 -18
-311 -80 -675 -106 -1009 -71 -81 9 -154 13 -162 10 -8 -3 -12 -3 -8 1 4 5
-43 18 -105 30 -728 143 -1385 591 -1825 1245 -267 396 -425 838 -474 1322
-15 158 -7 577 16 717 113 718 451 1323 991 1771 523 435 1164 664 1869 668
117 1 239 -5 315 -14z"/>
<path d="M4416 8215 c-94 -18 -235 -54 -254 -64 -10 -6 2 -17 39 -38 124 -71
249 -177 345 -294 l56 -68 61 23 c248 93 564 144 833 134 74 -3 134 -4 134 -2
0 13 -148 104 -241 149 -135 64 -263 108 -414 142 -143 32 -435 41 -559 18z"/>
<path d="M5293 7790 c-457 -45 -845 -203 -1188 -485 -235 -193 -441 -463 -560
-733 -227 -516 -213 -1087 40 -1580 146 -285 373 -532 641 -699 110 -70 183
-105 196 -97 6 4 8 3 5 -3 -8 -13 68 -47 84 -38 8 6 10 4 4 -5 -6 -10 -4 -12
9 -7 9 4 15 3 12 -2 -7 -11 41 -24 56 -15 7 5 8 2 3 -6 -6 -10 -3 -12 13 -8
12 4 20 2 17 -2 -3 -5 11 -14 32 -19 362 -97 663 -91 986 20 177 60 451 205
535 282 12 11 22 16 22 10 0 -5 -42 -50 -92 -100 -91 -87 -200 -168 -286 -212
-24 -12 -42 -24 -40 -26 7 -7 175 27 247 50 126 42 330 150 448 239 127 95
292 257 384 376 37 47 109 150 162 230 94 142 172 242 208 268 36 25 19 32
-83 32 -275 0 -496 -106 -710 -338 -27 -28 -48 -50 -48 -48 0 2 7 23 16 47 48
135 61 343 30 458 -44 162 -149 294 -306 383 -55 32 -189 75 -262 84 l-53 6
54 -53 c30 -30 72 -80 92 -113 187 -287 111 -705 -180 -997 -159 -158 -362
-261 -581 -294 -125 -19 -199 -19 -320 -1 -501 76 -909 473 -1005 980 -23 120
-29 277 -16 393 37 320 167 573 425 828 121 120 242 208 381 277 259 129 488
188 737 188 101 0 110 -1 103 -17 -4 -10 -12 -44 -18 -75 l-11 -57 -46 -6
c-276 -34 -415 -72 -595 -160 -598 -295 -899 -875 -749 -1444 24 -94 87 -234
125 -281 l20 -25 -8 60 c-4 33 -8 125 -7 205 1 176 20 257 94 407 182 370 597
623 1104 674 121 12 345 8 381 -7 12 -5 1 13 -29 46 -64 72 -100 137 -132 235
-32 99 -43 247 -24 326 31 130 114 245 215 297 46 23 134 52 161 52 7 0 -15
-28 -48 -62 -219 -227 -201 -583 40 -798 187 -167 450 -187 787 -61 279 106
425 226 425 350 -1 146 -122 336 -366 572 -270 261 -620 423 -1049 484 -130
19 -365 26 -482 15z m1228 -723 c93 -62 88 -178 -11 -244 -43 -30 -93 -29
-145 2 -130 76 -76 265 76 265 31 0 57 -7 80 -23z m-1724 -2993 c-3 -3 -12 -4
-19 -1 -8 3 -5 6 6 6 11 1 17 -2 13 -5z"/>
<path d="M3880 7374 c-132 -70 -275 -182 -400 -310 -168 -173 -274 -323 -363
-514 -89 -191 -124 -345 -114 -513 7 -121 33 -220 86 -325 36 -71 129 -208
135 -200 2 1 -3 41 -10 88 -29 190 -11 465 46 684 99 384 269 682 557 976 83
85 151 156 150 157 -2 1 -40 -18 -87 -43z"/>
<path d="M5155 2863 c-187 -39 -303 -90 -410 -180 -172 -145 -270 -313 -306
-528 -16 -91 -5 -259 21 -355 25 -87 87 -223 99 -215 5 2 8 -3 7 -12 0 -10 6
-18 14 -18 8 0 14 -8 12 -16 -1 -9 5 -23 15 -30 11 -9 14 -10 9 -1 -11 18 -1
15 15 -5 10 -11 10 -14 2 -9 -26 15 -12 -11 25 -47 39 -38 65 -51 41 -19 -13
15 -12 16 3 3 10 -7 15 -17 13 -21 -8 -12 62 -63 75 -55 6 4 9 1 8 -7 -2 -7 5
-13 14 -13 9 0 20 -4 25 -9 5 -5 2 -6 -7 -2 -8 4 -6 0 5 -8 11 -9 25 -14 33
-11 7 2 11 1 8 -4 -6 -10 93 -57 139 -65 24 -5 26 -4 10 3 -25 12 -1 12 35 1
21 -7 22 -8 5 -10 -15 -1 -13 -4 9 -10 16 -5 50 -7 75 -5 34 3 38 2 16 -3 -17
-4 30 -7 110 -8 77 0 127 3 110 7 -21 4 -12 6 30 6 68 -1 156 20 136 32 -9 6
-8 10 6 13 10 3 27 9 38 13 13 4 12 1 -5 -9 -37 -23 -18 -19 42 7 61 27 163
91 174 109 4 6 -7 2 -24 -11 -44 -31 -40 -20 5 15 20 15 33 22 28 15 -5 -9 -3
-12 6 -9 8 3 15 14 17 26 2 12 8 22 13 22 6 0 7 -6 4 -12 -9 -18 53 53 65 74
8 14 -3 28 -61 80 -39 35 -75 62 -81 60 -5 -1 -7 2 -4 7 3 5 -10 23 -29 40
l-35 30 -78 -62 c-86 -70 -144 -100 -235 -124 -82 -21 -196 -12 -279 21 -34
14 -65 23 -70 20 -5 -3 -7 -1 -6 4 2 5 -20 27 -48 50 -29 22 -62 54 -74 71
-12 17 -26 28 -32 25 -7 -4 -8 -2 -4 4 4 6 -4 33 -18 60 -55 109 -72 275 -41
397 57 217 243 365 460 365 133 0 247 -50 357 -157 l57 -56 108 98 c59 54 115
104 123 111 12 12 6 22 -45 75 -118 120 -257 193 -435 229 -90 18 -240 25
-295 13z m756 -1340 c13 -17 13 -17 -6 -3 -11 8 -22 16 -24 17 -2 2 0 3 6 3 6
0 17 -8 24 -17z m-1 -26 c0 -2 -12 -14 -27 -28 l-28 -24 24 28 c23 25 31 32
31 24z m-1134 -128 c3 -6 -5 -3 -20 6 -14 10 -26 19 -26 22 0 7 39 -17 46 -28z
m934 -44 c0 -2 -13 -11 -30 -20 -38 -19 -40 -11 -2 9 31 17 32 18 32 11z
m-745 -56 c15 -14 -7 -10 -35 7 l-25 15 25 -7 c14 -3 29 -10 35 -15z m550 -29
c-11 -5 -27 -9 -35 -9 -9 0 -8 4 5 9 11 5 27 9 35 9 9 0 8 -4 -5 -9z m-398
-16 c-3 -3 -12 -4 -19 -1 -8 3 -5 6 6 6 11 1 17 -2 13 -5z m340 0 c-3 -3 -12
-4 -19 -1 -8 3 -5 6 6 6 11 1 17 -2 13 -5z"/>
<path d="M6805 2856 c-341 -68 -603 -318 -669 -638 -20 -99 -20 -257 0 -356
19 -93 72 -234 85 -227 5 4 6 -2 2 -11 -5 -13 -3 -15 7 -9 9 5 11 4 6 -3 -9
-15 18 -55 29 -44 5 4 5 2 2 -4 -8 -15 22 -56 35 -48 7 4 8 2 4 -5 -9 -14 12
-43 25 -35 5 3 8 0 7 -8 -2 -7 3 -12 10 -10 8 1 11 -1 8 -6 -6 -10 61 -78 69
-70 4 3 -8 16 -25 28 -17 12 -29 24 -26 27 7 7 66 -49 61 -57 -8 -12 23 -32
36 -24 8 4 9 3 5 -4 -8 -14 50 -46 66 -36 7 4 8 3 4 -4 -3 -6 2 -16 13 -21 25
-14 34 -14 26 -1 -3 6 1 7 9 4 9 -3 14 -10 11 -14 -7 -11 52 -33 66 -24 7 4
10 3 6 -3 -7 -11 41 -28 51 -18 3 3 -2 5 -11 5 -9 0 -18 4 -21 8 -2 4 24 1 59
-8 43 -10 58 -17 47 -22 -22 -9 7 -11 167 -12 69 -1 111 2 95 6 -17 4 -6 5 26
2 34 -3 50 -1 42 4 -11 7 -9 10 7 15 12 3 19 1 15 -4 -7 -11 24 -11 51 1 14 6
15 9 5 10 -10 1 -9 4 5 10 27 12 43 12 25 0 -23 -15 -5 -12 40 6 22 9 38 19
36 23 -3 4 18 19 45 34 27 16 49 26 49 23 0 -2 -18 -15 -40 -27 -22 -12 -38
-24 -36 -26 4 -5 106 56 106 63 0 3 -5 2 -12 -2 -7 -4 -8 -3 -4 4 4 6 13 9 20
6 16 -6 168 144 163 160 -2 6 -11 10 -20 10 -9 -1 -28 13 -44 30 l-28 31 35
-30 c34 -29 34 -28 -4 12 -22 24 -42 40 -44 38 -3 -3 -12 4 -19 15 -8 11 -19
17 -25 14 -6 -4 -8 -3 -5 3 3 5 -11 26 -31 46 -34 33 -39 34 -56 21 -11 -8
-16 -14 -11 -14 5 0 -7 -11 -28 -25 -20 -14 -36 -30 -34 -36 1 -6 -5 -13 -13
-14 -30 -6 -120 -62 -113 -70 5 -4 3 -5 -4 -2 -6 4 -42 0 -79 -9 -70 -16 -226
-16 -216 0 3 5 -9 6 -29 3 -24 -5 -30 -4 -19 3 13 8 12 10 -5 11 -11 1 -26 2
-32 2 -7 -1 -11 2 -9 6 3 4 -17 19 -44 34 -62 35 -151 131 -184 199 -101 210
-66 460 88 614 104 104 226 150 374 141 113 -7 208 -52 303 -144 l69 -66 73
69 c39 38 93 88 120 112 26 23 47 46 47 50 0 13 -133 138 -181 170 -59 40
-140 75 -231 102 -95 28 -302 36 -403 16z m795 -1349 c0 -2 -12 -14 -27 -28
l-28 -24 24 28 c23 25 31 32 31 24z m-60 -71 c0 -3 -4 -8 -10 -11 -5 -3 -10
-1 -10 4 0 6 5 11 10 11 6 0 10 -2 10 -4z m-30 -19 c0 -2 -12 -14 -27 -28
l-28 -24 24 28 c23 25 31 32 31 24z m-980 -93 c0 -2 -9 0 -20 6 -11 6 -20 13
-20 16 0 2 9 0 20 -6 11 -6 20 -13 20 -16z m115 -54 c3 -6 -1 -7 -9 -4 -18 7
-21 14 -7 14 6 0 13 -4 16 -10z m645 0 c-8 -5 -19 -10 -25 -10 -5 0 -3 5 5 10
8 5 20 10 25 10 6 0 3 -5 -5 -10z m-392 -57 c-10 -2 -28 -2 -40 0 -13 2 -5 4
17 4 22 1 32 -1 23 -4z"/>
<path d="M2730 2035 l0 -815 185 0 185 0 0 330 0 330 360 0 360 0 2 -307 c2
-270 3 -287 8 -138 l6 170 2 -182 2 -183 173 -3 172 -3 -177 -2 c-113 -1 -178
2 -181 8 -3 6 -4 5 -3 -2 2 -10 47 -14 184 -16 l182 -2 0 815 0 815 -185 0
-185 0 0 -320 0 -320 -360 0 -360 0 0 320 0 320 -185 0 -185 0 0 -815z m357
-502 c-3 -10 -5 -4 -5 12 0 17 2 24 5 18 2 -7 2 -21 0 -30z m-172 -293 l164 0
4 58 3 57 2 -62 2 -63 -175 0 -175 0 2 153 2 152 3 -147 4 -148 164 0z m172
143 c-2 -16 -4 -3 -4 27 0 30 2 43 4 28 2 -16 2 -40 0 -55z m1090 -105 c-2
-13 -4 -5 -4 17 -1 22 1 32 4 23 2 -10 2 -28 0 -40z"/>
<path d="M6748 1223 c7 -3 16 -2 19 1 4 3 -2 6 -13 5 -11 0 -14 -3 -6 -6z"/>
</g>
</svg>
